<!-- icons.svg -->
<svg xmlns="http://www.w3.org/2000/svg" style="display: none;">
  <!-- <symbol
    viewBox="0 0 24 24"
    fill="none"
    stroke="currentColor"
    stroke-width="2"
    stroke-linecap="round"
    stroke-linejoin="round"
    id="hamburguer-icon"
  >
    <line x1="3" y1="12" x2="21" y2="12"></line>
    <line x1="3" y1="6" x2="21" y2="6"></line>
    <line x1="3" y1="18" x2="21" y2="18"></line>
  </symbol> -->
  <symbol id="icon-menu" viewBox="0 0 24 24">
    <line x1="3" y1="12" x2="21" y2="12"></line>
    <line x1="3" y1="6" x2="21" y2="6"></line>
    <line x1="3" y1="18" x2="21" y2="18"></line>
  </symbol>
  <symbol id="icon-home" viewBox="0 0 24 24">
    <path d="M12 3l8 8h-2v8h-4v-5h-4v5h-4v-8h-2l8-8z"/>
  </symbol>
  <symbol id="icon-services" viewBox="0 0 24 24">
    <path d="M12 2a10 10 0 0 0-3.01 19.496c.476.087.656-.206.656-.454 0-.226-.008-.822-.012-1.615-2.614.568-3.165-1.259-3.165-1.259-.432-1.094-1.056-1.385-1.056-1.385-.863-.59.065-.578.065-.578.954.067 1.456.98 1.456.98.849 1.455 2.228 1.034 2.77.791.086-.614.332-1.035.605-1.274-2.086-.236-4.281-1.046-4.281-4.658 0-1.03.368-1.873.97-2.531-.098-.237-.42-1.188.09-2.477 0 0 .79-.253 2.585.967A8.985 8.985 0 0 1 12 6.79c.8.003 1.606.108 2.357.316 1.793-1.22 2.583-.967 2.583-.967.512 1.29.19 2.24.093 2.477.605.658.967 1.501.967 2.531 0 3.62-2.198 4.418-4.291 4.65.342.295.647.88.647 1.776 0 1.283-.012 2.317-.012 2.635 0 .251.18.545.66.453A10 10 0 0 0 12 2z"/>
  </symbol>
  <symbol id="icon-about" viewBox="0 0 24 24">
    <path d="M12 2C6.486 2 2 6.486 2 12s4.486 10 10 10 10-4.486 10-10S17.514 2 12 2zm0 18c-4.411 0-8-3.589-8-8s3.589-8 8-8 8 3.589 8 8-3.589 8-8 8zm0-11a2 2 0 1 0 .001 4.001A2 2 0 0 0 12 9zm1 8h-2v-2h2v2z"/>
  </symbol>
  <symbol id="icon-contact" viewBox="0 0 24 24">
    <path d="M21 8V7l-3 2-3-2v1l3 2 3-2zM6 11h4V9H6v2zm0 4h8v-2H6v2zm0-8h8V5H6v2zm14-4H4c-1.103 0-2 .897-2 2v14c0 1.103.897 2 2 2h16c1.103 0 2-.897 2-2V5c0-1.103-.897-2-2-2z"/>
  </symbol>
</svg>